<svg xmlns="http://www.w3.org/2000/svg" viewBox="0 0 64 64" role="img" aria-labelledby="title desc">
  <title id="title">Peterson Service favicon</title>
  <desc id="desc">Seasonal service symbols from the Peterson Service logo on a green rounded square.</desc>
  <rect x="4" y="4" width="56" height="56" rx="16" fill="#173728"/>

  <g stroke="#ffffff" stroke-linecap="round" stroke-linejoin="round">
    <g transform="translate(7 8)">
      <path d="M6 14h12.5c2.9 0 5.3-2.4 5.3-5.3S21.4 3.4 18.5 3.4c-.8 0-1.6.2-2.3.5A7 7 0 0 0 3.5 7.1 4.3 4.3 0 0 0 6 14Z" fill="none" stroke-width="2.5"/>
      <circle cx="8.2" cy="18.8" r="1.7" fill="#ffffff" stroke="none"/>
      <circle cx="13.5" cy="20.3" r="1.7" fill="#ffffff" stroke="none"/>
      <circle cx="18.8" cy="18.8" r="1.7" fill="#ffffff" stroke="none"/>
    </g>

    <g transform="translate(36 9)">
      <path d="M4 4l13 13" fill="none" stroke-width="3.8"/>
      <path d="M17 4 4.5 16.5" fill="none" stroke-width="3.8"/>
      <rect x="2.2" y="1.8" width="8.8" height="4.8" rx="1.4" transform="rotate(-45 6.6 4.2)" fill="#ffffff" stroke="none"/>
      <path d="M15.5 15.5 20 20l-2.4 2.4-4.5-4.5Z" fill="#ffffff" stroke="none"/>
      <path d="M3.2 16.4 1.4 21.2l4.8-1.8Z" fill="#ffffff" stroke="none"/>
    </g>

    <g transform="translate(8 36)">
      <path d="M12 2C18.5 5 21 10.2 20.2 14.8 19.3 19.9 15.4 23 10.9 23 6 23 2.7 19.3 3 14.1 3.3 8.8 7.1 4.7 12 2Z" fill="#ffffff" stroke="none"/>
      <path d="M8 18.5c2.5-4.7 5.5-8.3 9.5-11" fill="none" stroke-width="2"/>
    </g>

    <g transform="translate(36 39)">
      <path d="M3 18.5h18l-1.4-9.2-2.5 5-2.3-10.3-2.6 8.2-2.8-6-2.1 9.3-3.1-5.5Z" fill="#ffffff" stroke="none"/>
    </g>
  </g>
</svg>
